<?xml version="1.0" ?><svg height="1024" preserveAspectRatio="xMidYMid meet" width="1024" xmlns="http://www.w3.org/2000/svg"><g><title/><rect fill="none" height="1026" id="canvas_background" width="1026" x="-1" y="-1"/></g><g><title/><g fill="#000000" id="svg_1" transform="translate(0,1024) scale(0.10000000149011612,-0.10000000149011612) "><path d="m4820,9439c-1036,-77 -1981,-503 -2723,-1228c-976,-952 -1444,-2300 -1271,-3654c216,-1693 1410,-3103 3050,-3602c1268,-386 2679,-157 3754,608c1321,941 2008,2502 1804,4100c-216,1693 -1410,3103 -3050,3602c-488,149 -1057,212 -1564,174zm520,-2469l0,-700l650,0l650,0l0,-435l0,-435l-651,0l-650,0l4,-932c3,-788 6,-945 19,-1009c30,-145 97,-236 237,-319c97,-58 174,-84 293,-100c255,-35 606,65 906,258l22,14l0,-436l0,-436l-87,-44c-227,-113 -492,-197 -769,-242c-157,-25 -529,-30 -694,-9c-316,40 -581,141 -799,305c-96,73 -224,207 -270,284c-47,79 -99,214 -124,321c-21,88 -21,116 -24,1218l-4,1127l-304,0l-305,0l0,393l0,392l78,29c230,84 477,249 623,417c175,199 279,404 349,688c24,97 60,299 60,340c0,8 110,11 395,11l395,0l0,-700z" fill="#32506d" id="svg_2"/></g></g></svg>